<svg width="78" height="78" viewBox="0 0 78 78" fill="none" xmlns="http://www.w3.org/2000/svg">
<rect width="78" height="78" rx="39" fill="#F2F2F2"/>
<path d="M38 15C24.1929 15 13 26.1929 13 40C13 53.8071 24.1929 65 38 65C51.8071 65 63 53.8071 63 40C63 26.1929 51.8071 15 38 15ZM28.2568 20.4092C28.2918 20.737 28.4338 21.0588 28.6945 21.3195C29.429 22.054 29.228 23.2922 28.299 23.7568L27.3897 24.2114C27.173 24.3198 26.9751 24.4624 26.8038 24.6337L25.3032 26.1343C24.4662 26.9713 23.2282 27.2636 22.1053 26.8893L22.0454 26.8693C21.5642 26.7089 21.0703 26.672 20.5989 26.7422C22.6242 24.0881 25.2428 21.9111 28.2568 20.4092ZM18.8819 50.6389L21.5704 49.9668C22.9616 49.619 23.9375 48.369 23.9375 46.9351V46.3599C23.9375 45.3151 24.4597 44.3394 25.3291 43.7598L25.4533 43.677C27.0941 42.5831 27.324 40.2615 25.9296 38.8671L22.7541 35.6916C22.5114 35.4489 22.375 35.1196 22.375 34.7763C22.375 33.7097 23.5927 33.1008 24.4461 33.7408L27.8525 36.2956C28.3259 36.6507 28.9594 36.7078 29.4887 36.4431C30.5276 35.9237 31.75 36.6791 31.75 37.8407V39.2611C31.75 39.7429 31.8926 40.2139 32.1599 40.6148L34.6429 44.3393C34.7969 44.5704 34.9195 44.821 35.0073 45.0845L37.2877 51.9257C37.7131 53.2018 38.9073 54.0625 40.2524 54.0625H40.4351C41.7802 54.0625 42.9744 53.2018 43.3998 51.9257L45.6802 45.0845C45.768 44.821 45.8906 44.5704 46.0446 44.3393L48.5163 40.6317C48.7795 40.2371 49.2224 40 49.6968 40C50.1951 40 50.6541 40.261 50.9218 40.6813C52.6629 43.4152 56.0154 47.8125 58.3125 47.8125C58.3558 47.8125 58.3984 47.811 58.4403 47.8081C55.2964 56.0335 47.3304 61.875 38 61.875C29.7805 61.875 22.6198 57.3417 18.8819 50.6389Z" fill="black"/>
</svg>
