<svg width="78" height="78" viewBox="0 0 78 78" fill="none" xmlns="http://www.w3.org/2000/svg">
<rect width="78" height="78" rx="39" fill="#F2F2F2"/>
<g clip-path="url(#clip0_1_1724)">
<path d="M53.666 29.8334H44.4993V24.3334C44.4993 22.3167 42.8493 20.6667 40.8327 20.6667H37.166C35.1493 20.6667 33.4993 22.3167 33.4993 24.3334V29.8334H24.3327C22.316 29.8334 20.666 31.4834 20.666 33.5001V53.6667C20.666 55.6834 22.316 57.3334 24.3327 57.3334H53.666C55.6827 57.3334 57.3327 55.6834 57.3327 53.6667V33.5001C57.3327 31.4834 55.6827 29.8334 53.666 29.8334ZM33.4993 39.0001C35.021 39.0001 36.2493 40.2284 36.2493 41.7501C36.2493 43.2717 35.021 44.5001 33.4993 44.5001C31.9777 44.5001 30.7493 43.2717 30.7493 41.7501C30.7493 40.2284 31.9777 39.0001 33.4993 39.0001ZM38.9993 50.0001H27.9993V48.6251C27.9993 46.7917 31.666 45.8751 33.4993 45.8751C35.3327 45.8751 38.9993 46.7917 38.9993 48.6251V50.0001ZM40.8327 33.5001H37.166V24.3334H40.8327V33.5001ZM49.9993 47.2501H42.666V44.5001H49.9993V47.2501ZM49.9993 41.7501H42.666V39.0001H49.9993V41.7501Z" fill="black"/>
</g>
<defs>
<clipPath id="clip0_1_1724">
<rect width="44" height="44" fill="white" transform="translate(17 17)"/>
</clipPath>
</defs>
</svg>
