<svg width="78" height="78" viewBox="0 0 78 78" fill="none" xmlns="http://www.w3.org/2000/svg">
<rect width="78" height="78" rx="39" fill="#F2F2F2"/>
<g clip-path="url(#clip0_1_1708)">
<path d="M46.566 37.8333C49.602 37.8333 52.044 35.38 52.044 32.3571C52.044 29.3343 49.602 26.881 46.566 26.881C43.53 26.881 41.066 29.3343 41.066 32.3571C41.066 35.38 43.53 37.8333 46.566 37.8333ZM30.066 35.6429C33.718 35.6429 36.644 32.7076 36.644 29.0714C36.644 25.4352 33.718 22.5 30.066 22.5C26.414 22.5 23.466 25.4352 23.466 29.0714C23.466 32.7076 26.414 35.6429 30.066 35.6429ZM46.566 42.2143C42.54 42.2143 34.466 44.2295 34.466 48.2381V53.1667H58.666V48.2381C58.666 44.2295 50.592 42.2143 46.566 42.2143ZM30.066 40.0238C24.94 40.0238 14.666 42.5867 14.666 47.6905V53.1667H30.066V48.2381C30.066 46.3762 30.792 43.1124 35.28 40.6371C33.366 40.2429 31.518 40.0238 30.066 40.0238Z" fill="black"/>
</g>
<defs>
<clipPath id="clip0_1_1708">
<rect width="44" height="44" fill="white" transform="translate(17 17)"/>
</clipPath>
</defs>
</svg>
