<svg width="18" height="21" viewBox="0 0 18 21" fill="none" xmlns="http://www.w3.org/2000/svg">
<path fill-rule="evenodd" clip-rule="evenodd" d="M0.5 8.81776C0.5 4.21789 4.34388 0.5 8.99345 0.5C13.6561 0.5 17.5 4.21789 17.5 8.81776C17.5 11.1357 16.657 13.2876 15.2695 15.1116C13.7388 17.1235 11.8522 18.8765 9.72854 20.2524C9.24251 20.5704 8.80387 20.5944 8.27045 20.2524C6.13474 18.8765 4.24809 17.1235 2.7305 15.1116C1.34198 13.2876 0.5 11.1357 0.5 8.81776ZM6.19434 9.07629C6.19434 10.6172 7.45177 11.8292 8.99355 11.8292C10.5363 11.8292 11.8059 10.6172 11.8059 9.07629C11.8059 7.54733 10.5363 6.27637 8.99355 6.27637C7.45177 6.27637 6.19434 7.54733 6.19434 9.07629Z" fill="black"/>
</svg>
