<svg width="25" height="25" viewBox="0 0 25 25" fill="none" xmlns="http://www.w3.org/2000/svg">
<path d="M21.1314 22.5446C18.7428 24.9332 12.6257 22.6888 7.46844 17.5316C2.31122 12.3743 0.0668108 6.25722 2.45541 3.86861L4.02813 2.29589C5.11386 1.21016 6.90289 1.23886 8.02402 2.35999L10.46 4.79599C11.5812 5.91713 11.6099 7.70615 10.5241 8.79188L10.1863 9.12968C9.60012 9.71589 9.54277 10.6616 10.0875 11.3216C10.6128 11.9583 11.1793 12.5925 11.7934 13.2066C12.4075 13.8207 13.0417 14.3872 13.6784 14.9125C14.3384 15.4572 15.2841 15.3999 15.8703 14.8137L16.2081 14.4759C17.2939 13.3901 19.0829 13.4188 20.204 14.54L22.64 16.976C23.7611 18.0971 23.7898 19.8861 22.7041 20.9719L21.1314 22.5446Z" fill="black" stroke="black" stroke-width="1.5"/>
</svg>
