<svg width="85" height="34" viewBox="0 0 85 34" fill="none" xmlns="http://www.w3.org/2000/svg">
<g clip-path="url(#clip0_1_1599)">
<path d="M4.53052 2.3439L11.213 7.57437V0.323242L4.53052 2.3439Z" fill="#F2B035"/>
<path d="M17.0361 13.9957V7.57251H0V13.9957H4.50446V24.7642C4.50446 28.3209 5.44684 30.7904 7.32802 32.1709C9.2092 33.5496 12.4458 33.9823 17.0361 33.4656V27.4054C15.7594 27.4751 14.69 27.484 13.8263 27.4322C12.9626 27.3785 12.3081 27.1461 11.8575 26.733C11.4105 26.3181 11.1869 25.6637 11.1869 24.7642V13.9957H17.0361Z" fill="#BF2726"/>
<path d="M44.4545 12.8765C42.3963 9.60414 39.6228 7.51374 36.1358 6.60892C32.6524 5.7023 29.2996 6.26022 26.0862 8.28267C22.6976 10.4142 20.6161 13.2646 19.84 16.8267C19.064 20.3959 19.7149 23.8292 21.791 27.1302C23.8867 30.4634 26.721 32.5341 30.2902 33.3478C33.6359 34.1078 37.0031 33.5159 40.3953 31.5632L37.1605 26.4203C34.1241 28.0547 31.4651 27.8205 29.1708 25.7319L45.6955 15.3389C45.3289 14.4323 44.9141 13.6079 44.4545 12.8765ZM26.3276 21.4044C25.7643 19.7986 25.7375 18.2983 26.2453 16.9C26.7532 15.5016 27.7671 14.3214 29.2853 13.3665C30.5692 12.5582 31.9497 12.2006 33.4142 12.2972C34.8841 12.3937 36.2449 13.0858 37.5074 14.375L26.3294 21.4062L26.3276 21.4044Z" fill="#BF2726"/>
<path d="M48.1558 33.6462V0.323242H54.8365V33.6462H48.1558Z" fill="#BF2726"/>
<path d="M78.3212 7.06113H85.0018V33.5568H78.3212V29.8982C76.3184 32.4177 73.5056 33.6784 69.8809 33.6784C66.2562 33.6784 63.4684 32.3587 61.0007 29.7175C58.5312 27.0764 57.2974 23.8398 57.2974 20.0077C57.2974 16.1756 58.5312 12.9389 61.0007 10.2978C63.4684 7.6566 66.4297 6.33691 69.8809 6.33691C73.5056 6.33691 76.3184 7.59759 78.3212 10.1172V7.06292V7.06113ZM65.9969 25.2632C67.3434 26.6275 69.0512 27.3088 71.1237 27.3088C73.1962 27.3088 74.9129 26.6275 76.2755 25.2632C77.6381 23.8988 78.3212 22.1481 78.3212 20.0077C78.3212 17.8672 77.6399 16.1165 76.2755 14.7522C74.9111 13.3896 73.1944 12.7065 71.1237 12.7065C69.0529 12.7065 67.3434 13.3878 65.9969 14.7522C64.6504 16.1165 63.9781 17.8672 63.9781 20.0077C63.9781 22.1481 64.6504 23.9006 65.9969 25.2632Z" fill="#BF2726"/>
</g>
<defs>
<clipPath id="clip0_1_1599">
<rect width="85" height="33.3534" fill="white" transform="translate(0 0.323242)"/>
</clipPath>
</defs>
</svg>
