<svg width="79" height="46" viewBox="0 0 79 46" fill="none" xmlns="http://www.w3.org/2000/svg">
<path d="M6.85576 36.4934V38.251H4.34004V45.8135H2.50203V38.251H0V36.4934H6.85576Z" fill="white"/>
<path d="M9.71887 44.056H13.6465V45.8135H7.88257V36.4951H13.5797V38.2527H9.71887V40.2362H13.246V41.9664H9.71887V44.056Z" fill="white"/>
<path d="M16.7748 44.056H20.3293V45.8135H14.9368V36.4951H16.7748V44.0577V44.056Z" fill="white"/>
<path d="M27.7585 45.8135L27.1664 44.1364H23.338L22.7784 45.8135H20.7949L24.0568 36.4951H26.3329L29.6205 45.8135H27.7585ZM23.937 42.4182H26.5605L25.2154 38.6104L23.937 42.4182Z" fill="white"/>
<path d="M43.0016 40.8078V41.5266C43.0016 42.858 42.5755 43.9362 41.7232 44.7611C40.871 45.586 39.7706 45.9984 38.422 45.9984C36.9845 45.9984 35.7933 45.5312 34.8469 44.5934C33.9023 43.6572 33.4299 42.514 33.4299 41.1655C33.4299 39.8169 33.8971 38.6583 34.835 37.7171C35.7711 36.7758 36.9314 36.3052 38.3159 36.3052C39.1853 36.3052 39.9794 36.502 40.6981 36.8973C41.4169 37.2926 41.9765 37.818 42.3753 38.4752L40.8042 39.3805C40.5818 38.9989 40.2463 38.6874 39.7997 38.4478C39.3513 38.2082 38.8516 38.0884 38.3022 38.0884C37.414 38.0884 36.685 38.3794 36.1117 38.9612C35.5401 39.5431 35.2525 40.2773 35.2525 41.1655C35.2525 42.0537 35.5435 42.769 36.1253 43.3423C36.7072 43.9157 37.4773 44.2015 38.4357 44.2015C39.1459 44.2015 39.7346 44.044 40.2001 43.7291C40.6656 43.4142 40.9839 42.9812 41.1516 42.4319H38.3296V40.8078H43.0034H43.0016Z" fill="white"/>
<path d="M49.4175 45.8135L47.5333 42.579H46.142V45.8135H44.304V36.4951H48.0313C48.8921 36.4951 49.6246 36.7963 50.227 37.4004C50.8311 38.0045 51.1323 38.7319 51.1323 39.5841C51.1323 40.1609 50.968 40.6965 50.6395 41.1894C50.3109 41.6823 49.8762 42.0519 49.3354 42.3001L51.3993 45.8153H49.4158L49.4175 45.8135ZM46.142 38.2116V40.9669H48.033C48.3787 40.9669 48.6765 40.8317 48.9247 40.5613C49.1728 40.2909 49.2977 39.9641 49.2977 39.5824C49.2977 39.2008 49.1728 38.8773 48.9247 38.6104C48.6765 38.3434 48.3787 38.2116 48.033 38.2116H46.142Z" fill="white"/>
<path d="M60.2147 44.5951C59.2734 45.5312 58.1285 46.0001 56.7799 46.0001C55.4314 46.0001 54.2882 45.5329 53.3521 44.5951C52.4159 43.6589 51.947 42.5123 51.947 41.1535C51.947 39.7947 52.4142 38.648 53.3521 37.7119C54.2899 36.7758 55.4314 36.3069 56.7799 36.3069C58.1285 36.3069 59.2734 36.7758 60.2147 37.7119C61.1559 38.648 61.6265 39.7947 61.6265 41.1535C61.6265 42.5123 61.1559 43.6589 60.2147 44.5951ZM54.6373 43.3441C55.214 43.9174 55.9294 44.2032 56.7799 44.2032C57.6305 44.2032 58.3458 43.9174 58.9226 43.3441C59.4993 42.7725 59.7885 42.0417 59.7885 41.1535C59.7885 40.2653 59.4993 39.5345 58.9226 38.9561C58.3458 38.3794 57.6305 38.0901 56.7799 38.0901C55.9294 38.0901 55.214 38.3794 54.6373 38.9561C54.0606 39.5328 53.7713 40.2653 53.7713 41.1535C53.7713 42.0417 54.0589 42.7707 54.6373 43.3441Z" fill="white"/>
<path d="M66.326 46.0001C65.2872 46.0001 64.4349 45.7074 63.7692 45.1221C63.1035 44.5369 62.7715 43.7513 62.7715 42.7656V36.4951H64.5958V42.6184C64.5958 43.1062 64.7361 43.4929 65.0151 43.777C65.294 44.0611 65.7322 44.2031 66.326 44.2031C66.9199 44.2031 67.358 44.0611 67.6369 43.777C67.9159 43.4929 68.0562 43.1062 68.0562 42.6184V36.4951H69.8942V42.7656C69.8942 43.7513 69.5605 44.5369 68.8965 45.1221C68.2308 45.7074 67.3751 46.0001 66.3277 46.0001H66.326Z" fill="white"/>
<path d="M75.0197 36.4934C75.9165 36.4934 76.6712 36.7946 77.2822 37.3987C77.8949 38.0028 78.2012 38.7439 78.2012 39.6218C78.2012 40.4997 77.8949 41.2408 77.2822 41.8449C76.6695 42.449 75.9148 42.7502 75.0197 42.7502H73.382V45.8118H71.5439V36.4934H75.018H75.0197ZM75.0197 41.0337C75.4099 41.0337 75.7334 40.8985 75.9918 40.6281C76.2485 40.3577 76.3786 40.0223 76.3786 39.6235C76.3786 39.2248 76.2502 38.8773 75.9918 38.6121C75.7351 38.3451 75.4099 38.2133 75.0197 38.2133H73.382V41.0354H75.0197V41.0337Z" fill="white"/>
<path d="M30.803 0.0102539C30.803 7.5711 25.253 13.833 18.0054 14.9488V9.51351C22.2889 8.47299 25.4687 4.61385 25.4687 0.0102539H30.803Z" fill="#BF2726"/>
<path d="M51.651 5.3412V0C43.8643 0.0444957 37.5664 6.36973 37.5664 14.165C37.5664 16.8074 38.2903 19.2803 39.5533 21.399C40.4775 22.9581 41.6942 24.322 43.1284 25.419C45.4935 27.2314 48.4473 28.313 51.651 28.3301V22.9923C46.8147 22.9495 42.9042 19.0134 42.9042 14.165C42.9042 9.31672 46.813 5.38227 51.651 5.3412Z" fill="#BF2726"/>
<path d="M36.5533 22.5063C36.004 22.8023 35.3776 22.9735 34.7102 22.9735C32.5538 22.9735 30.8014 21.221 30.8014 19.0681V11.5364H25.4636V19.0681C25.4636 24.1663 29.612 28.3113 34.7102 28.3113C36.7364 28.3113 38.6104 27.6541 40.1352 26.5451C38.7216 25.4156 37.5083 24.0516 36.5533 22.5063Z" fill="#F2B035"/>
<path d="M51.5278 14.1633H60.3568V23.0642L51.5278 14.1633Z" fill="#F2B035"/>
</svg>
