<!-- <svg width="46" height="32" viewBox="0 0 46 32" fill="none" xmlns="http://www.w3.org/2000/svg">
<path d="M13.9002 0.625977C13.9002 8.8382 7.87207 15.6396 0 16.8515V10.948C4.6526 9.8178 8.10628 5.62618 8.10628 0.625977H13.9002Z" fill="#BF2726"/>
<path d="M36.5441 6.4161V0.614746C28.0865 0.663075 21.2461 7.53324 21.2461 16.0001C21.2461 18.8701 22.0324 21.5561 23.4042 23.8573C24.4079 25.5507 25.7295 27.0322 27.2872 28.2237C29.8561 30.1922 33.0644 31.3669 36.5441 31.3855V25.5879C31.2911 25.5414 27.0437 21.2661 27.0437 16.0001C27.0437 10.7341 31.2893 6.46071 36.5441 6.4161Z" fill="#BF2726"/>
<path d="M20.1459 25.06C19.5492 25.3816 18.8689 25.5675 18.144 25.5675C15.8019 25.5675 13.8985 23.664 13.8985 21.3256V13.145H8.10083V21.3256C8.10083 26.863 12.6066 31.3651 18.144 31.3651C20.3448 31.3651 22.3802 30.6513 24.0364 29.4468C22.501 28.22 21.1831 26.7385 20.1459 25.06Z" fill="#F2B035"/>
<path d="M36.4104 15.9983H46V25.666L36.4104 15.9983Z" fill="#F2B035"/>
</svg> -->
<svg width="60" height="42" viewBox="0 0 60 42" fill="none" xmlns="http://www.w3.org/2000/svg">
<path d="M18.1307 0.946777C18.1307 11.6584 10.2679 20.5298 0 22.1106V14.4102C6.06861 12.9361 10.5734 7.46878 10.5734 0.946777H18.1307Z" fill="white"/>
<path d="M47.6663 8.49911V0.932129C36.6347 0.995167 27.7124 9.95625 27.7124 21C27.7124 24.7435 28.738 28.247 30.5273 31.2485C31.8365 33.4573 33.5604 35.3896 35.5921 36.9438C38.9429 39.5114 43.1276 41.0437 47.6663 41.0679V33.5058C40.8146 33.4452 35.2745 27.8687 35.2745 21C35.2745 14.1313 40.8122 8.5573 47.6663 8.49911Z" fill="white"/>
<path d="M26.2772 32.8172C25.4989 33.2366 24.6115 33.4791 23.6659 33.4791C20.611 33.4791 18.1283 30.9963 18.1283 27.9463V17.2759H10.5662V27.9463C10.5662 35.169 16.4432 41.0412 23.6659 41.0412C26.5366 41.0412 29.1915 40.1102 31.3517 38.5391C29.349 36.9389 27.63 35.0065 26.2772 32.8172Z" fill="white"/>
<path d="M47.4917 20.9976H59.9999V33.6076L47.4917 20.9976Z" fill="white"/>
</svg>
