<svg width="46" height="32" viewBox="0 0 46 32" fill="none" xmlns="http://www.w3.org/2000/svg">
<path d="M13.9002 0.625977C13.9002 8.8382 7.87207 15.6396 0 16.8515V10.948C4.6526 9.8178 8.10628 5.62618 8.10628 0.625977H13.9002Z" fill="#BF2726"/>
<path d="M36.5441 6.4161V0.614746C28.0865 0.663075 21.2461 7.53324 21.2461 16.0001C21.2461 18.8701 22.0324 21.5561 23.4042 23.8573C24.4079 25.5507 25.7295 27.0322 27.2872 28.2237C29.8561 30.1922 33.0644 31.3669 36.5441 31.3855V25.5879C31.2911 25.5414 27.0437 21.2661 27.0437 16.0001C27.0437 10.7341 31.2893 6.46071 36.5441 6.4161Z" fill="#BF2726"/>
<path d="M20.1459 25.06C19.5492 25.3816 18.8689 25.5675 18.144 25.5675C15.8019 25.5675 13.8985 23.664 13.8985 21.3256V13.145H8.10083V21.3256C8.10083 26.863 12.6066 31.3651 18.144 31.3651C20.3448 31.3651 22.3802 30.6513 24.0364 29.4468C22.501 28.22 21.1831 26.7385 20.1459 25.06Z" fill="#F2B035"/>
<path d="M36.4104 15.9983H46V25.666L36.4104 15.9983Z" fill="#F2B035"/>
</svg>
