<svg width="60" height="60" viewBox="0 0 60 60" fill="none" xmlns="http://www.w3.org/2000/svg">
<rect width="60" height="60" rx="10.534" fill="black"/>
<g clip-path="url(#clip0_1_5020)">
<path d="M30.669 29.3568C30.6637 29.3513 30.6623 29.344 30.6569 29.3387L25.3218 24.0035V20.6512C25.3218 20.4029 25.2232 20.1656 25.048 19.9902L19.4389 14.3189C19.1724 14.0524 18.7697 13.9712 18.4201 14.1163C18.0704 14.2605 17.8431 14.602 17.8431 14.9799V17.7844H14.9762C14.5984 17.7844 14.2569 18.0117 14.1127 18.3614C13.9675 18.711 14.0479 19.1127 14.3153 19.3802L19.9867 25.0515C20.162 25.2269 20.3994 25.3254 20.6477 25.3254H23.9999L29.335 30.6605C29.3404 30.6659 29.3477 30.6674 29.3532 30.6726C29.7171 31.02 30.27 31.0246 30.6388 30.6726C31.0272 30.3019 31.0185 29.7229 30.669 29.3568Z" fill="white"/>
<path d="M29.9994 14.0456C27.6074 14.0456 25.3458 14.6542 23.3092 15.6048L26.1769 18.4725C27.3805 18.0723 28.6633 17.8473 29.9995 17.8473C36.7004 17.8472 42.1523 23.2992 42.1523 30.0001C42.1523 36.701 36.7004 42.153 29.9994 42.153C23.2985 42.153 17.8466 36.7011 17.8466 30.0001C17.8466 28.6639 18.0716 27.3811 18.4718 26.1775L15.6041 23.3098C14.6536 25.3465 14.0449 27.6081 14.0449 30.0001C14.0449 38.7633 21.2363 45.9547 29.9994 45.9547C38.7626 45.9547 45.954 38.7633 45.954 30.0001C45.954 21.237 38.7627 14.0456 29.9994 14.0456Z" fill="white"/>
<path d="M29.9995 21.5866C29.0113 21.5866 28.0765 21.7892 27.1949 22.1035V23.2299L29.3561 25.391C29.5684 25.3614 29.7791 25.326 29.9995 25.326C32.5767 25.326 34.6737 27.423 34.6737 30.0002C34.6737 32.5774 32.5767 34.6744 29.9995 34.6744C27.4222 34.6744 25.3252 32.5774 25.3252 30.0002C25.3252 29.7798 25.3606 29.569 25.3903 29.3568L23.2292 27.1956H22.1028C21.7885 28.0772 21.5859 29.012 21.5859 30.0001C21.5859 34.6396 25.36 38.4136 29.9995 38.4136C34.6389 38.4136 38.413 34.6396 38.413 30.0001C38.413 25.3606 34.639 21.5866 29.9995 21.5866Z" fill="white"/>
</g>
<defs>
<clipPath id="clip0_1_5020">
<rect width="31.9093" height="31.9093" fill="white" transform="translate(14.0454 14.0453)"/>
</clipPath>
</defs>
</svg>
