<svg width="60" height="60" viewBox="0 0 60 60" fill="none" xmlns="http://www.w3.org/2000/svg">
<rect width="60" height="60" rx="10.7647" fill="black"/>
<path d="M50.0062 29.149C49.9225 29.0489 47.9148 26.6677 44.4728 24.277C39.8733 21.0821 34.8686 19.3934 29.9998 19.3934C25.1311 19.3934 20.1264 21.0821 15.5267 24.277C12.0848 26.6676 10.0771 29.0489 9.99337 29.149L9.28174 30L9.99346 30.851C10.0772 30.9511 12.0849 33.3324 15.5268 35.7231C20.1265 38.9179 25.1312 40.6066 29.9999 40.6066C34.8686 40.6066 39.8733 38.9179 44.4728 35.7231C47.9148 33.3324 49.9225 30.9511 50.0062 30.851L50.7181 30L50.0062 29.149ZM29.9998 37.4304C25.6661 37.4304 22.1404 34.0972 22.1404 30C22.1404 29.358 22.2269 28.7349 22.3896 28.1403L20.5952 27.8548C20.4194 28.5431 20.3262 29.2614 20.3262 30C20.3262 32.6465 21.5219 35.0338 23.4288 36.7053C20.9741 35.8481 18.8868 34.6451 17.3114 33.5571C15.3596 32.2094 13.8969 30.8463 13.063 30C13.8973 29.1533 15.3598 27.7904 17.3114 26.4428C18.8868 25.3548 20.9742 24.1519 23.4288 23.2945L24.6326 24.5773C26.0384 23.3328 27.9265 22.5695 29.9998 22.5695C34.3334 22.5695 37.8591 25.9028 37.8591 30C37.8591 34.0972 34.3334 37.4304 29.9998 37.4304ZM42.6882 33.5571C41.1126 34.6451 39.0253 35.8481 36.5707 36.7053C38.4775 35.0339 39.6733 32.6466 39.6733 29.9999C39.6733 27.3531 38.4775 24.966 36.5707 23.2944C39.0254 24.1518 41.1126 25.3547 42.6882 26.4427C44.6399 27.7904 46.1026 29.1535 46.9365 29.9998C46.1022 30.8466 44.6397 32.2096 42.6882 33.5571Z" fill="white"/>
<path d="M24.9991 28.555C24.8516 29.0121 24.7717 29.4969 24.7717 29.9995C24.7717 32.7296 27.1127 34.9429 30.0005 34.9429C32.8882 34.9429 35.2292 32.7297 35.2292 29.9995C35.2292 27.2693 32.8882 25.0561 30.0005 25.0561C28.5939 25.0561 27.3181 25.5821 26.3782 26.4363L28.9573 29.1848L24.9991 28.555Z" fill="white"/>
</svg>
