<svg width="24" height="28" viewBox="0 0 24 28" fill="none" xmlns="http://www.w3.org/2000/svg">
<path d="M21.97 22.33C21.97 22.69 21.89 23.06 21.72 23.42C21.55 23.78 21.33 24.12 21.04 24.44C20.55 24.98 20.01 25.37 19.4 25.62C18.8 25.87 18.15 26 17.45 26C16.43 26 15.34 25.76 14.19 25.27C13.04 24.78 11.89 24.12 10.75 23.29C9.6 22.45 8.51 21.52 7.47 20.49C6.44 19.45 5.51 18.36 4.68 17.22C3.86 16.08 3.2 14.94 2.72 13.81C2.24 12.67 2 11.58 2 10.54C2 9.86 2.12 9.21 2.36 8.61C2.6 8 2.98 7.44 3.51 6.94C4.15 6.31 4.85 6 5.59 6C5.87 6 6.15 6.06 6.4 6.18C6.66 6.3 6.89 6.48 7.07 6.74L9.39 10.01C9.57 10.26 9.7 10.49 9.79 10.71C9.88 10.92 9.93 11.13 9.93 11.32C9.93 11.56 9.86 11.8 9.72 12.03C9.59 12.26 9.4 12.5 9.16 12.74L8.4 13.53C8.29 13.64 8.24 13.77 8.24 13.93C8.24 14.01 8.25 14.08 8.27 14.16C8.3 14.24 8.33 14.3 8.35 14.36C8.53 14.69 8.84 15.12 9.28 15.64C9.73 16.16 10.21 16.69 10.73 17.22C11.27 17.75 11.79 18.24 12.32 18.69C12.84 19.13 13.27 19.43 13.61 19.61C13.66 19.63 13.72 19.66 13.79 19.69C13.87 19.72 13.95 19.73 14.04 19.73C14.21 19.73 14.34 19.67 14.45 19.56L15.21 18.81C15.46 18.56 15.7 18.37 15.93 18.25C16.16 18.11 16.39 18.04 16.64 18.04C16.83 18.04 17.03 18.08 17.25 18.17C17.47 18.26 17.7 18.39 17.95 18.56L21.26 20.91C21.52 21.09 21.7 21.3 21.81 21.55C21.91 21.8 21.97 22.05 21.97 22.33Z" stroke="white" stroke-width="1.5" stroke-miterlimit="10"/>
</svg>
